<?xml version="1.0" encoding="utf-8" ?>
<svg baseProfile="full" height="1024" version="1.1" width="1024" xmlns="http://www.w3.org/2000/svg" xmlns:ev="http://www.w3.org/2001/xml-events" xmlns:xlink="http://www.w3.org/1999/xlink"><defs /><rect fill="black" height="1024" width="1024" x="0" y="0" /><path d="M 489,614 L 488,615 L 487,615 L 486,616 L 485,616 L 483,618 L 483,619 L 482,620 L 482,630 L 481,631 L 481,633 L 482,634 L 482,665 L 483,666 L 483,667 L 486,670 L 487,670 L 488,671 L 494,671 L 495,670 L 496,670 L 499,667 L 499,666 L 500,665 L 500,621 L 499,620 L 499,619 L 498,618 L 498,617 L 497,616 L 496,616 L 495,615 L 493,615 L 492,614 Z" fill="white" /><path d="M 576,578 L 575,579 L 574,579 L 573,580 L 572,580 L 570,582 L 570,583 L 569,584 L 569,591 L 570,592 L 570,593 L 591,614 L 592,614 L 601,623 L 602,623 L 603,624 L 609,624 L 610,623 L 611,623 L 614,620 L 614,619 L 615,618 L 615,612 L 614,611 L 614,610 L 584,580 L 583,580 L 582,579 L 580,579 L 579,578 Z" fill="white" /><path d="M 400,578 L 399,579 L 398,579 L 397,580 L 396,580 L 390,586 L 390,587 L 368,609 L 368,610 L 367,611 L 367,612 L 366,613 L 366,618 L 367,619 L 367,620 L 370,623 L 371,623 L 372,624 L 379,624 L 381,622 L 382,622 L 398,606 L 398,605 L 410,593 L 410,592 L 411,591 L 411,584 L 410,583 L 410,582 L 408,580 L 407,580 L 406,579 L 405,579 L 404,578 Z" fill="white" /><path d="M 812,576 L 808,580 L 808,581 L 807,582 L 807,585 L 806,586 L 806,589 L 805,590 L 805,592 L 804,593 L 804,596 L 803,597 L 803,599 L 802,600 L 802,603 L 801,604 L 801,606 L 800,607 L 800,609 L 799,610 L 799,612 L 798,613 L 798,615 L 797,616 L 797,617 L 796,618 L 796,620 L 795,621 L 795,623 L 794,624 L 794,625 L 793,626 L 793,628 L 792,629 L 792,630 L 791,631 L 791,632 L 790,633 L 790,635 L 789,636 L 789,637 L 788,638 L 788,639 L 787,640 L 787,641 L 786,642 L 786,643 L 785,644 L 785,645 L 784,646 L 784,647 L 783,648 L 783,649 L 782,650 L 782,651 L 781,652 L 781,653 L 780,654 L 780,655 L 779,656 L 779,657 L 778,658 L 778,659 L 777,660 L 777,661 L 775,663 L 775,664 L 774,665 L 774,666 L 772,668 L 772,669 L 771,670 L 771,671 L 769,673 L 769,674 L 767,676 L 767,677 L 766,678 L 766,679 L 764,681 L 764,682 L 762,684 L 762,685 L 759,688 L 759,689 L 757,691 L 757,692 L 754,695 L 754,696 L 750,700 L 750,701 L 746,705 L 746,706 L 741,711 L 741,712 L 731,722 L 731,723 L 722,732 L 721,732 L 710,743 L 709,743 L 703,749 L 702,749 L 698,753 L 697,753 L 693,757 L 692,757 L 689,760 L 688,760 L 686,762 L 685,762 L 682,765 L 681,765 L 679,767 L 678,767 L 676,769 L 675,769 L 673,771 L 672,771 L 670,773 L 669,773 L 667,775 L 666,775 L 665,776 L 664,776 L 662,778 L 661,778 L 660,779 L 659,779 L 657,781 L 656,781 L 655,782 L 654,782 L 653,783 L 652,783 L 650,785 L 649,785 L 648,786 L 647,786 L 646,787 L 645,787 L 644,788 L 643,788 L 642,789 L 641,789 L 640,790 L 639,790 L 638,791 L 637,791 L 636,792 L 635,792 L 634,793 L 633,793 L 632,794 L 631,794 L 630,795 L 629,795 L 628,796 L 626,796 L 625,797 L 624,797 L 623,798 L 622,798 L 621,799 L 619,799 L 618,800 L 617,800 L 616,801 L 614,801 L 613,802 L 612,802 L 611,803 L 609,803 L 608,804 L 607,804 L 606,805 L 604,805 L 603,806 L 601,806 L 600,807 L 599,807 L 598,808 L 596,808 L 595,809 L 593,809 L 592,810 L 590,810 L 589,811 L 587,811 L 586,812 L 584,812 L 583,813 L 581,813 L 580,814 L 577,814 L 576,815 L 573,815 L 572,816 L 569,816 L 568,817 L 564,817 L 563,818 L 560,818 L 559,819 L 555,819 L 554,820 L 550,820 L 549,821 L 544,821 L 543,822 L 537,822 L 536,823 L 529,823 L 528,824 L 518,824 L 517,825 L 501,825 L 500,826 L 481,826 L 480,825 L 464,825 L 463,824 L 454,824 L 453,823 L 446,823 L 445,822 L 439,822 L 438,821 L 433,821 L 432,820 L 427,820 L 426,819 L 422,819 L 421,818 L 417,818 L 416,817 L 413,817 L 412,816 L 409,816 L 408,815 L 405,815 L 404,814 L 402,814 L 401,813 L 398,813 L 397,812 L 395,812 L 394,811 L 391,811 L 390,810 L 388,810 L 387,809 L 385,809 L 384,808 L 382,808 L 381,807 L 380,807 L 379,806 L 377,806 L 376,805 L 374,805 L 373,804 L 372,804 L 371,803 L 369,803 L 368,802 L 366,802 L 365,801 L 364,801 L 363,800 L 362,800 L 361,799 L 359,799 L 358,798 L 357,798 L 356,797 L 355,797 L 354,796 L 353,796 L 352,795 L 350,795 L 349,794 L 348,794 L 347,793 L 346,793 L 345,792 L 344,792 L 343,791 L 342,791 L 341,790 L 340,790 L 339,789 L 338,789 L 337,788 L 336,788 L 335,787 L 334,787 L 333,786 L 332,786 L 331,785 L 330,785 L 328,783 L 327,783 L 326,782 L 325,782 L 324,781 L 323,781 L 321,779 L 320,779 L 319,778 L 318,778 L 316,776 L 315,776 L 314,775 L 313,775 L 311,773 L 310,773 L 309,772 L 308,772 L 306,770 L 305,770 L 303,768 L 302,768 L 300,766 L 299,766 L 297,764 L 296,764 L 293,761 L 292,761 L 289,758 L 288,758 L 285,755 L 284,755 L 281,752 L 280,752 L 276,748 L 275,748 L 270,743 L 269,743 L 261,735 L 260,735 L 246,721 L 246,720 L 237,711 L 237,710 L 232,705 L 232,704 L 228,700 L 228,699 L 225,696 L 225,695 L 221,691 L 221,690 L 219,688 L 219,687 L 216,684 L 216,683 L 214,681 L 214,680 L 212,678 L 212,677 L 210,675 L 210,674 L 208,672 L 208,671 L 206,669 L 206,668 L 204,666 L 204,665 L 203,664 L 203,663 L 201,661 L 201,660 L 200,659 L 200,658 L 199,657 L 199,656 L 198,655 L 198,654 L 196,652 L 196,651 L 195,650 L 195,649 L 194,648 L 194,647 L 193,646 L 193,645 L 192,644 L 192,643 L 191,642 L 191,640 L 190,639 L 190,638 L 189,637 L 189,636 L 188,635 L 188,634 L 187,633 L 187,632 L 186,631 L 186,629 L 185,628 L 185,627 L 184,626 L 184,624 L 183,623 L 183,622 L 182,621 L 182,619 L 181,618 L 181,616 L 180,615 L 180,613 L 179,612 L 179,611 L 178,610 L 178,609 L 176,607 L 175,607 L 174,606 L 171,606 L 170,605 L 169,606 L 166,606 L 162,610 L 162,611 L 161,612 L 161,618 L 162,619 L 162,621 L 163,622 L 163,624 L 164,625 L 164,626 L 165,627 L 165,629 L 166,630 L 166,631 L 167,632 L 167,634 L 168,635 L 168,636 L 169,637 L 169,639 L 170,640 L 170,641 L 171,642 L 171,643 L 172,644 L 172,645 L 173,646 L 173,647 L 174,648 L 174,650 L 175,651 L 175,652 L 176,653 L 176,654 L 177,655 L 177,656 L 178,657 L 178,658 L 179,659 L 179,660 L 180,661 L 180,662 L 182,664 L 182,665 L 183,666 L 183,667 L 184,668 L 184,669 L 186,671 L 186,672 L 187,673 L 187,674 L 188,675 L 188,676 L 190,678 L 190,679 L 192,681 L 192,682 L 193,683 L 193,684 L 195,686 L 195,687 L 197,689 L 197,690 L 199,692 L 199,693 L 201,695 L 201,696 L 204,699 L 204,700 L 206,702 L 206,703 L 209,706 L 209,707 L 213,711 L 213,712 L 217,716 L 217,717 L 223,723 L 223,724 L 253,754 L 254,754 L 261,761 L 262,761 L 266,765 L 267,765 L 271,769 L 272,769 L 275,772 L 276,772 L 279,775 L 280,775 L 283,778 L 284,778 L 287,781 L 288,781 L 291,784 L 292,784 L 294,786 L 295,786 L 297,788 L 298,788 L 299,789 L 300,789 L 302,791 L 303,791 L 305,793 L 306,793 L 307,794 L 308,794 L 310,796 L 311,796 L 312,797 L 313,797 L 314,798 L 315,798 L 317,800 L 318,800 L 319,801 L 320,801 L 321,802 L 322,802 L 323,803 L 324,803 L 325,804 L 326,804 L 327,805 L 328,805 L 329,806 L 330,806 L 331,807 L 332,807 L 333,808 L 334,808 L 335,809 L 336,809 L 337,810 L 338,810 L 339,811 L 340,811 L 341,812 L 342,812 L 343,813 L 344,813 L 345,814 L 347,814 L 348,815 L 349,815 L 350,816 L 351,816 L 352,817 L 354,817 L 355,818 L 356,818 L 357,819 L 359,819 L 360,820 L 361,820 L 362,821 L 364,821 L 365,822 L 367,822 L 368,823 L 370,823 L 371,824 L 372,824 L 373,825 L 376,825 L 377,826 L 378,826 L 379,827 L 382,827 L 383,828 L 385,828 L 386,829 L 389,829 L 390,830 L 393,830 L 394,831 L 396,831 L 397,832 L 400,832 L 401,833 L 404,833 L 405,834 L 409,834 L 410,835 L 413,835 L 414,836 L 418,836 L 419,837 L 422,837 L 423,838 L 428,838 L 429,839 L 433,839 L 434,840 L 440,840 L 441,841 L 446,841 L 447,842 L 454,842 L 455,843 L 465,843 L 466,844 L 515,844 L 516,843 L 526,843 L 527,842 L 535,842 L 536,841 L 542,841 L 543,840 L 548,840 L 549,839 L 554,839 L 555,838 L 559,838 L 560,837 L 564,837 L 565,836 L 569,836 L 570,835 L 573,835 L 574,834 L 577,834 L 578,833 L 581,833 L 582,832 L 585,832 L 586,831 L 588,831 L 589,830 L 591,830 L 592,829 L 595,829 L 596,828 L 598,828 L 599,827 L 601,827 L 602,826 L 603,826 L 604,825 L 606,825 L 607,824 L 609,824 L 610,823 L 611,823 L 612,822 L 614,822 L 615,821 L 617,821 L 618,820 L 619,820 L 620,819 L 622,819 L 623,818 L 624,818 L 625,817 L 627,817 L 628,816 L 629,816 L 630,815 L 631,815 L 632,814 L 634,814 L 635,813 L 636,813 L 637,812 L 638,812 L 639,811 L 640,811 L 641,810 L 643,810 L 644,809 L 645,809 L 646,808 L 647,808 L 648,807 L 649,807 L 650,806 L 651,806 L 652,805 L 653,805 L 654,804 L 655,804 L 656,803 L 657,803 L 659,801 L 660,801 L 661,800 L 662,800 L 663,799 L 664,799 L 665,798 L 666,798 L 668,796 L 669,796 L 670,795 L 671,795 L 673,793 L 674,793 L 676,791 L 677,791 L 678,790 L 679,790 L 681,788 L 682,788 L 684,786 L 685,786 L 687,784 L 688,784 L 690,782 L 691,782 L 694,779 L 695,779 L 698,776 L 699,776 L 702,773 L 703,773 L 707,769 L 708,769 L 712,765 L 713,765 L 718,760 L 719,760 L 726,753 L 727,753 L 752,728 L 752,727 L 758,721 L 758,720 L 762,716 L 762,715 L 766,711 L 766,710 L 769,707 L 769,706 L 772,703 L 772,702 L 774,700 L 774,699 L 777,696 L 777,695 L 779,693 L 779,692 L 781,690 L 781,689 L 783,687 L 783,686 L 784,685 L 784,684 L 786,682 L 786,681 L 788,679 L 788,678 L 789,677 L 789,676 L 791,674 L 791,673 L 792,672 L 792,671 L 793,670 L 793,669 L 794,668 L 794,667 L 796,665 L 796,664 L 797,663 L 797,662 L 798,661 L 798,660 L 799,659 L 799,658 L 800,657 L 800,656 L 801,655 L 801,654 L 802,653 L 802,652 L 803,651 L 803,650 L 804,649 L 804,648 L 805,647 L 805,645 L 806,644 L 806,643 L 807,642 L 807,641 L 808,640 L 808,639 L 809,638 L 809,636 L 810,635 L 810,634 L 811,633 L 811,631 L 812,630 L 812,629 L 813,628 L 813,626 L 814,625 L 814,623 L 815,622 L 815,621 L 816,620 L 816,618 L 817,617 L 817,615 L 818,614 L 818,612 L 819,611 L 819,609 L 820,608 L 820,605 L 821,604 L 821,602 L 822,601 L 822,598 L 823,597 L 823,595 L 824,594 L 824,591 L 825,590 L 825,587 L 826,586 L 826,584 L 825,583 L 825,581 L 824,580 L 824,579 L 823,578 L 822,578 L 820,576 Z" fill="white" /><path d="M 614,486 L 613,487 L 612,487 L 608,491 L 608,493 L 607,494 L 607,497 L 608,498 L 608,500 L 612,504 L 614,504 L 615,505 L 657,505 L 658,504 L 660,504 L 661,503 L 662,503 L 663,502 L 663,501 L 665,499 L 665,492 L 664,491 L 664,490 L 661,487 L 659,487 L 658,486 Z" fill="white" /><path d="M 322,486 L 321,487 L 320,487 L 318,489 L 318,490 L 317,491 L 317,492 L 316,493 L 316,497 L 317,498 L 317,500 L 320,503 L 321,503 L 322,504 L 326,504 L 327,505 L 364,505 L 365,504 L 368,504 L 370,502 L 371,502 L 371,501 L 373,499 L 373,492 L 372,491 L 372,490 L 369,487 L 368,487 L 367,486 Z" fill="white" /><path d="M 820,454 L 819,455 L 815,455 L 814,456 L 812,456 L 811,457 L 810,457 L 809,458 L 807,458 L 806,459 L 805,459 L 804,460 L 803,460 L 801,462 L 800,462 L 798,464 L 797,464 L 788,473 L 788,474 L 786,476 L 786,477 L 784,479 L 784,480 L 783,481 L 783,482 L 782,483 L 782,484 L 781,485 L 781,487 L 780,488 L 780,490 L 779,491 L 779,494 L 778,495 L 778,514 L 779,515 L 779,518 L 780,519 L 780,521 L 781,522 L 781,524 L 782,525 L 782,526 L 783,527 L 783,528 L 784,529 L 784,530 L 786,532 L 786,533 L 789,536 L 789,537 L 796,544 L 797,544 L 800,547 L 801,547 L 802,548 L 803,548 L 805,550 L 807,550 L 808,551 L 809,551 L 810,552 L 812,552 L 813,553 L 815,553 L 816,554 L 820,554 L 821,555 L 836,555 L 837,554 L 841,554 L 842,553 L 844,553 L 845,552 L 847,552 L 848,551 L 849,551 L 850,550 L 851,550 L 852,549 L 853,549 L 854,548 L 855,548 L 856,547 L 857,547 L 860,544 L 861,544 L 868,537 L 868,536 L 871,533 L 871,532 L 873,530 L 873,529 L 874,528 L 874,527 L 875,526 L 875,524 L 876,523 L 876,522 L 877,521 L 877,519 L 878,518 L 878,514 L 879,513 L 879,495 L 878,494 L 878,491 L 877,490 L 877,488 L 876,487 L 876,485 L 875,484 L 875,483 L 874,482 L 874,481 L 873,480 L 873,479 L 871,477 L 871,476 L 869,474 L 869,473 L 861,465 L 860,465 L 857,462 L 856,462 L 854,460 L 853,460 L 852,459 L 851,459 L 850,458 L 848,458 L 847,457 L 846,457 L 845,456 L 842,456 L 841,455 L 838,455 L 837,454 Z" fill="white" /><path d="M 163,425 L 162,426 L 154,426 L 153,427 L 149,427 L 148,428 L 145,428 L 144,429 L 142,429 L 141,430 L 140,430 L 139,431 L 137,431 L 136,432 L 135,432 L 134,433 L 133,433 L 132,434 L 131,434 L 130,435 L 129,435 L 128,436 L 127,436 L 125,438 L 124,438 L 122,440 L 121,440 L 118,443 L 117,443 L 107,453 L 107,454 L 104,457 L 104,458 L 102,460 L 102,461 L 100,463 L 100,464 L 99,465 L 99,466 L 97,468 L 97,469 L 96,470 L 96,472 L 95,473 L 95,474 L 94,475 L 94,476 L 93,477 L 93,479 L 92,480 L 92,482 L 91,483 L 91,486 L 90,487 L 90,491 L 89,492 L 89,499 L 88,500 L 88,510 L 89,511 L 89,518 L 90,519 L 90,523 L 91,524 L 91,527 L 92,528 L 92,530 L 93,531 L 93,533 L 94,534 L 94,536 L 95,537 L 95,538 L 96,539 L 96,540 L 97,541 L 97,542 L 98,543 L 98,544 L 99,545 L 99,546 L 101,548 L 101,549 L 103,551 L 103,552 L 107,556 L 107,557 L 116,566 L 117,566 L 120,569 L 121,569 L 123,571 L 124,571 L 126,573 L 127,573 L 128,574 L 129,574 L 131,576 L 132,576 L 133,577 L 134,577 L 135,578 L 137,578 L 138,579 L 139,579 L 140,580 L 142,580 L 143,581 L 146,581 L 147,582 L 150,582 L 151,583 L 155,583 L 156,584 L 178,584 L 179,583 L 184,583 L 185,582 L 187,582 L 188,581 L 191,581 L 192,580 L 193,580 L 194,579 L 196,579 L 197,578 L 198,578 L 199,577 L 200,577 L 201,576 L 202,576 L 203,575 L 204,575 L 205,574 L 206,574 L 207,573 L 208,573 L 210,571 L 211,571 L 214,568 L 215,568 L 229,554 L 229,553 L 231,551 L 231,550 L 233,548 L 233,547 L 235,545 L 235,544 L 236,543 L 236,542 L 237,541 L 237,540 L 238,539 L 238,538 L 239,537 L 239,536 L 240,535 L 240,533 L 241,532 L 241,530 L 242,529 L 242,527 L 243,526 L 243,523 L 244,522 L 244,518 L 245,517 L 245,506 L 246,505 L 246,503 L 245,502 L 245,492 L 244,491 L 244,487 L 243,486 L 243,483 L 242,482 L 242,480 L 241,479 L 241,477 L 240,476 L 240,475 L 239,474 L 239,472 L 238,471 L 238,470 L 237,469 L 237,468 L 236,467 L 236,466 L 234,464 L 234,463 L 233,462 L 233,461 L 230,458 L 230,457 L 227,454 L 227,453 L 219,445 L 218,445 L 214,441 L 213,441 L 211,439 L 210,439 L 208,437 L 207,437 L 206,436 L 205,436 L 203,434 L 202,434 L 201,433 L 199,433 L 198,432 L 197,432 L 196,431 L 195,431 L 194,430 L 192,430 L 191,429 L 189,429 L 188,428 L 185,428 L 184,427 L 180,427 L 179,426 L 171,426 L 170,425 Z" fill="white" /><path d="M 486,400 L 485,401 L 476,401 L 475,402 L 470,402 L 469,403 L 466,403 L 465,404 L 463,404 L 462,405 L 459,405 L 458,406 L 457,406 L 456,407 L 454,407 L 453,408 L 452,408 L 451,409 L 449,409 L 448,410 L 447,410 L 446,411 L 445,411 L 444,412 L 443,412 L 442,413 L 441,413 L 439,415 L 438,415 L 436,417 L 435,417 L 433,419 L 432,419 L 429,422 L 428,422 L 423,427 L 422,427 L 419,430 L 419,431 L 412,438 L 412,439 L 409,442 L 409,443 L 407,445 L 407,446 L 406,447 L 406,448 L 404,450 L 404,451 L 403,452 L 403,453 L 402,454 L 402,455 L 401,456 L 401,457 L 400,458 L 400,459 L 399,460 L 399,462 L 398,463 L 398,464 L 397,465 L 397,467 L 396,468 L 396,471 L 395,472 L 395,474 L 394,475 L 394,479 L 393,480 L 393,485 L 392,486 L 392,510 L 393,511 L 393,516 L 394,517 L 394,521 L 395,522 L 395,525 L 396,526 L 396,528 L 397,529 L 397,531 L 398,532 L 398,534 L 399,535 L 399,536 L 400,537 L 400,538 L 401,539 L 401,540 L 402,541 L 402,542 L 403,543 L 403,544 L 404,545 L 404,546 L 405,547 L 405,548 L 407,550 L 407,551 L 409,553 L 409,554 L 411,556 L 411,557 L 415,561 L 415,562 L 425,572 L 426,572 L 430,576 L 431,576 L 434,579 L 435,579 L 437,581 L 438,581 L 439,582 L 440,582 L 442,584 L 443,584 L 444,585 L 445,585 L 446,586 L 447,586 L 448,587 L 449,587 L 450,588 L 452,588 L 453,589 L 454,589 L 455,590 L 457,590 L 458,591 L 460,591 L 461,592 L 463,592 L 464,593 L 467,593 L 468,594 L 472,594 L 473,595 L 478,595 L 479,596 L 502,596 L 503,595 L 509,595 L 510,594 L 513,594 L 514,593 L 517,593 L 518,592 L 520,592 L 521,591 L 523,591 L 524,590 L 526,590 L 527,589 L 529,589 L 530,588 L 531,588 L 532,587 L 533,587 L 534,586 L 535,586 L 536,585 L 537,585 L 538,584 L 539,584 L 540,583 L 541,583 L 543,581 L 544,581 L 546,579 L 547,579 L 549,577 L 550,577 L 554,573 L 555,573 L 567,561 L 567,560 L 570,557 L 570,556 L 573,553 L 573,552 L 574,551 L 574,550 L 576,548 L 576,547 L 577,546 L 577,545 L 578,544 L 578,543 L 579,542 L 579,541 L 580,540 L 580,539 L 581,538 L 581,537 L 582,536 L 582,534 L 583,533 L 583,532 L 584,531 L 584,529 L 585,528 L 585,526 L 586,525 L 586,522 L 587,521 L 587,518 L 588,517 L 588,512 L 589,511 L 589,486 L 588,485 L 588,480 L 587,479 L 587,475 L 586,474 L 586,472 L 585,471 L 585,469 L 584,468 L 584,466 L 583,465 L 583,463 L 582,462 L 582,461 L 581,460 L 581,458 L 580,457 L 580,456 L 579,455 L 579,454 L 578,453 L 578,452 L 576,450 L 576,449 L 575,448 L 575,447 L 573,445 L 573,444 L 570,441 L 570,440 L 567,437 L 567,436 L 553,422 L 552,422 L 549,419 L 548,419 L 546,417 L 545,417 L 543,415 L 542,415 L 541,414 L 540,414 L 538,412 L 537,412 L 536,411 L 535,411 L 534,410 L 533,410 L 532,409 L 530,409 L 529,408 L 528,408 L 527,407 L 525,407 L 524,406 L 522,406 L 521,405 L 519,405 L 518,404 L 516,404 L 515,403 L 511,403 L 510,402 L 506,402 L 505,401 L 497,401 L 496,400 Z" fill="white" /><path d="M 601,369 L 600,370 L 599,370 L 568,401 L 568,403 L 567,404 L 567,407 L 568,408 L 568,409 L 569,410 L 569,411 L 571,413 L 572,413 L 573,414 L 576,414 L 577,415 L 578,414 L 581,414 L 612,383 L 612,382 L 613,381 L 613,375 L 612,374 L 612,373 L 609,370 L 608,370 L 607,369 Z" fill="white" /><path d="M 377,368 L 376,369 L 373,369 L 369,373 L 369,374 L 368,375 L 368,381 L 369,382 L 369,383 L 378,392 L 378,393 L 398,413 L 399,413 L 400,414 L 406,414 L 407,413 L 408,413 L 412,409 L 412,402 L 411,401 L 411,400 L 410,399 L 410,398 L 388,376 L 388,375 L 384,371 L 383,371 L 381,369 L 379,369 L 378,368 Z" fill="white" /><path d="M 488,323 L 487,324 L 486,324 L 482,328 L 482,330 L 481,331 L 481,374 L 482,375 L 482,376 L 486,380 L 489,380 L 490,381 L 491,381 L 492,380 L 494,380 L 495,379 L 496,379 L 499,376 L 499,374 L 500,373 L 500,331 L 499,330 L 499,328 L 495,324 L 494,324 L 493,323 Z" fill="white" /><path d="M 467,251 L 466,252 L 457,252 L 456,253 L 449,253 L 448,254 L 443,254 L 442,255 L 437,255 L 436,256 L 433,256 L 432,257 L 428,257 L 427,258 L 424,258 L 423,259 L 420,259 L 419,260 L 416,260 L 415,261 L 413,261 L 412,262 L 409,262 L 408,263 L 406,263 L 405,264 L 403,264 L 402,265 L 400,265 L 399,266 L 397,266 L 396,267 L 395,267 L 394,268 L 392,268 L 391,269 L 390,269 L 389,270 L 387,270 L 386,271 L 385,271 L 384,272 L 382,272 L 381,273 L 380,273 L 379,274 L 378,274 L 377,275 L 376,275 L 375,276 L 373,276 L 372,277 L 371,277 L 370,278 L 369,278 L 368,279 L 367,279 L 366,280 L 365,280 L 363,282 L 362,282 L 361,283 L 360,283 L 359,284 L 358,284 L 357,285 L 356,285 L 354,287 L 353,287 L 352,288 L 351,288 L 350,289 L 349,289 L 347,291 L 346,291 L 344,293 L 343,293 L 341,295 L 340,295 L 338,297 L 337,297 L 335,299 L 334,299 L 331,302 L 330,302 L 327,305 L 326,305 L 323,308 L 322,308 L 317,313 L 316,313 L 306,323 L 305,323 L 296,332 L 296,333 L 288,341 L 288,342 L 283,347 L 283,348 L 280,351 L 280,352 L 277,355 L 277,356 L 274,359 L 274,360 L 272,362 L 272,363 L 270,365 L 270,366 L 268,368 L 268,369 L 266,371 L 266,372 L 265,373 L 265,374 L 263,376 L 263,377 L 262,378 L 262,379 L 260,381 L 260,382 L 259,383 L 259,384 L 258,385 L 258,386 L 257,387 L 257,388 L 256,389 L 256,390 L 255,391 L 255,392 L 254,393 L 254,394 L 253,395 L 253,396 L 252,397 L 252,398 L 251,399 L 251,400 L 250,401 L 250,402 L 249,403 L 249,404 L 248,405 L 248,407 L 247,408 L 247,409 L 246,410 L 246,412 L 245,413 L 245,414 L 244,415 L 244,417 L 243,418 L 243,419 L 242,420 L 242,422 L 241,423 L 241,425 L 240,426 L 240,431 L 241,432 L 241,433 L 245,437 L 248,437 L 249,438 L 250,438 L 251,437 L 253,437 L 254,436 L 255,436 L 258,433 L 258,432 L 259,431 L 259,429 L 260,428 L 260,425 L 261,424 L 261,423 L 262,422 L 262,420 L 263,419 L 263,418 L 264,417 L 264,415 L 265,414 L 265,413 L 266,412 L 266,411 L 267,410 L 267,408 L 268,407 L 268,406 L 269,405 L 269,404 L 270,403 L 270,402 L 271,401 L 271,400 L 272,399 L 272,398 L 273,397 L 273,396 L 274,395 L 274,394 L 276,392 L 276,391 L 277,390 L 277,389 L 278,388 L 278,387 L 280,385 L 280,384 L 281,383 L 281,382 L 283,380 L 283,379 L 285,377 L 285,376 L 287,374 L 287,373 L 289,371 L 289,370 L 292,367 L 292,366 L 296,362 L 296,361 L 300,357 L 300,356 L 307,349 L 307,348 L 321,334 L 322,334 L 329,327 L 330,327 L 334,323 L 335,323 L 339,319 L 340,319 L 343,316 L 344,316 L 346,314 L 347,314 L 349,312 L 350,312 L 352,310 L 353,310 L 355,308 L 356,308 L 358,306 L 359,306 L 360,305 L 361,305 L 363,303 L 364,303 L 365,302 L 366,302 L 368,300 L 369,300 L 370,299 L 371,299 L 372,298 L 373,298 L 374,297 L 375,297 L 376,296 L 377,296 L 378,295 L 379,295 L 380,294 L 381,294 L 382,293 L 383,293 L 384,292 L 385,292 L 386,291 L 387,291 L 388,290 L 389,290 L 390,289 L 392,289 L 393,288 L 394,288 L 395,287 L 397,287 L 398,286 L 399,286 L 400,285 L 402,285 L 403,284 L 405,284 L 406,283 L 407,283 L 408,282 L 410,282 L 411,281 L 413,281 L 414,280 L 417,280 L 418,279 L 420,279 L 421,278 L 424,278 L 425,277 L 428,277 L 429,276 L 432,276 L 433,275 L 437,275 L 438,274 L 442,274 L 443,273 L 447,273 L 448,272 L 454,272 L 455,271 L 463,271 L 464,270 L 476,270 L 477,269 L 499,269 L 500,270 L 512,270 L 513,271 L 520,271 L 521,272 L 527,272 L 528,273 L 532,273 L 533,274 L 537,274 L 538,275 L 542,275 L 543,276 L 546,276 L 547,277 L 550,277 L 551,278 L 553,278 L 554,279 L 557,279 L 558,280 L 560,280 L 561,281 L 563,281 L 564,282 L 566,282 L 567,283 L 569,283 L 570,284 L 572,284 L 573,285 L 574,285 L 575,286 L 577,286 L 578,287 L 579,287 L 580,288 L 582,288 L 583,289 L 584,289 L 585,290 L 586,290 L 587,291 L 588,291 L 589,292 L 591,292 L 592,293 L 593,293 L 594,294 L 595,294 L 596,295 L 597,295 L 598,296 L 599,296 L 600,297 L 601,297 L 602,298 L 603,298 L 605,300 L 606,300 L 607,301 L 608,301 L 609,302 L 610,302 L 612,304 L 613,304 L 614,305 L 615,305 L 617,307 L 618,307 L 619,308 L 620,308 L 622,310 L 623,310 L 625,312 L 626,312 L 629,315 L 630,315 L 632,317 L 633,317 L 636,320 L 637,320 L 641,324 L 642,324 L 647,329 L 648,329 L 671,352 L 671,353 L 677,359 L 677,360 L 681,364 L 681,365 L 684,368 L 684,369 L 686,371 L 686,372 L 688,374 L 688,375 L 691,378 L 691,379 L 692,380 L 692,381 L 694,383 L 694,384 L 695,385 L 695,386 L 697,388 L 697,389 L 698,390 L 698,391 L 699,392 L 699,393 L 701,395 L 701,396 L 702,397 L 702,398 L 703,399 L 703,400 L 704,401 L 704,402 L 705,403 L 705,404 L 706,405 L 706,406 L 707,407 L 707,408 L 708,409 L 708,410 L 709,411 L 709,413 L 710,414 L 710,415 L 711,416 L 711,417 L 712,418 L 712,420 L 713,421 L 713,423 L 714,424 L 714,425 L 715,426 L 715,428 L 716,429 L 716,431 L 717,432 L 717,434 L 718,435 L 718,437 L 719,438 L 719,441 L 720,442 L 720,444 L 721,445 L 721,449 L 722,450 L 722,453 L 723,454 L 723,457 L 724,458 L 724,463 L 725,464 L 725,469 L 726,470 L 726,477 L 727,478 L 727,489 L 728,490 L 728,511 L 727,512 L 727,524 L 726,525 L 726,533 L 725,534 L 725,539 L 724,540 L 724,544 L 723,545 L 723,549 L 722,550 L 722,554 L 721,555 L 721,558 L 720,559 L 720,561 L 719,562 L 719,565 L 718,566 L 718,568 L 717,569 L 717,571 L 716,572 L 716,574 L 715,575 L 715,577 L 714,578 L 714,580 L 713,581 L 713,582 L 712,583 L 712,585 L 711,586 L 711,587 L 710,588 L 710,590 L 709,591 L 709,592 L 708,593 L 708,594 L 707,595 L 707,596 L 706,597 L 706,598 L 705,599 L 705,600 L 704,601 L 704,602 L 703,603 L 703,604 L 702,605 L 702,606 L 701,607 L 701,608 L 700,609 L 700,610 L 699,611 L 699,612 L 698,613 L 698,614 L 696,616 L 696,617 L 695,618 L 695,619 L 693,621 L 693,622 L 691,624 L 691,625 L 689,627 L 689,628 L 687,630 L 687,631 L 685,633 L 685,634 L 683,636 L 683,637 L 679,641 L 679,642 L 676,645 L 676,646 L 670,652 L 670,653 L 648,675 L 647,675 L 642,680 L 641,680 L 637,684 L 636,684 L 632,688 L 631,688 L 629,690 L 628,690 L 625,693 L 624,693 L 622,695 L 621,695 L 619,697 L 618,697 L 617,698 L 616,698 L 614,700 L 613,700 L 612,701 L 611,701 L 609,703 L 608,703 L 607,704 L 606,704 L 605,705 L 604,705 L 603,706 L 602,706 L 600,708 L 599,708 L 598,709 L 597,709 L 596,710 L 595,710 L 594,711 L 593,711 L 592,712 L 590,712 L 589,713 L 588,713 L 587,714 L 586,714 L 585,715 L 584,715 L 583,716 L 581,716 L 580,717 L 579,717 L 578,718 L 576,718 L 575,719 L 574,719 L 573,720 L 571,720 L 570,721 L 568,721 L 567,722 L 565,722 L 564,723 L 562,723 L 561,724 L 559,724 L 558,725 L 556,725 L 555,726 L 552,726 L 551,727 L 548,727 L 547,728 L 544,728 L 543,729 L 540,729 L 539,730 L 535,730 L 534,731 L 529,731 L 528,732 L 523,732 L 522,733 L 515,733 L 514,734 L 503,734 L 502,735 L 474,735 L 473,734 L 462,734 L 461,733 L 454,733 L 453,732 L 447,732 L 446,731 L 441,731 L 440,730 L 436,730 L 435,729 L 432,729 L 431,728 L 428,728 L 427,727 L 424,727 L 423,726 L 420,726 L 419,725 L 417,725 L 416,724 L 414,724 L 413,723 L 410,723 L 409,722 L 408,722 L 407,721 L 405,721 L 404,720 L 402,720 L 401,719 L 399,719 L 398,718 L 397,718 L 396,717 L 395,717 L 394,716 L 392,716 L 391,715 L 390,715 L 389,714 L 388,714 L 387,713 L 386,713 L 385,712 L 384,712 L 383,711 L 381,711 L 380,710 L 379,710 L 378,709 L 377,709 L 376,708 L 375,708 L 373,706 L 372,706 L 371,705 L 370,705 L 369,704 L 368,704 L 367,703 L 366,703 L 364,701 L 363,701 L 362,700 L 361,700 L 359,698 L 358,698 L 356,696 L 355,696 L 353,694 L 352,694 L 351,693 L 350,693 L 347,690 L 346,690 L 344,688 L 343,688 L 339,684 L 338,684 L 335,681 L 334,681 L 328,675 L 327,675 L 306,654 L 306,653 L 300,647 L 300,646 L 296,642 L 296,641 L 293,638 L 293,637 L 290,634 L 290,633 L 288,631 L 288,630 L 286,628 L 286,627 L 284,625 L 284,624 L 283,623 L 283,622 L 281,620 L 281,619 L 280,618 L 280,617 L 278,615 L 278,614 L 277,613 L 277,612 L 276,611 L 276,610 L 274,608 L 274,607 L 273,606 L 273,605 L 272,604 L 272,603 L 271,602 L 271,601 L 270,600 L 270,599 L 269,598 L 269,596 L 268,595 L 268,594 L 267,593 L 267,592 L 266,591 L 266,590 L 265,589 L 265,587 L 264,586 L 264,585 L 263,584 L 263,582 L 262,581 L 262,579 L 261,578 L 261,577 L 260,576 L 260,574 L 259,573 L 259,571 L 258,570 L 258,569 L 257,568 L 257,567 L 256,566 L 255,566 L 254,565 L 252,565 L 251,564 L 248,564 L 247,565 L 246,565 L 245,566 L 244,566 L 242,568 L 242,569 L 241,570 L 241,578 L 242,579 L 242,581 L 243,582 L 243,584 L 244,585 L 244,587 L 245,588 L 245,589 L 246,590 L 246,592 L 247,593 L 247,594 L 248,595 L 248,597 L 249,598 L 249,599 L 250,600 L 250,601 L 251,602 L 251,603 L 252,604 L 252,606 L 253,607 L 253,608 L 254,609 L 254,610 L 255,611 L 255,612 L 256,613 L 256,614 L 257,615 L 257,616 L 259,618 L 259,619 L 260,620 L 260,621 L 261,622 L 261,623 L 262,624 L 262,625 L 264,627 L 264,628 L 265,629 L 265,630 L 267,632 L 267,633 L 268,634 L 268,635 L 270,637 L 270,638 L 272,640 L 272,641 L 274,643 L 274,644 L 277,647 L 277,648 L 280,651 L 280,652 L 283,655 L 283,656 L 287,660 L 287,661 L 293,667 L 293,668 L 313,688 L 314,688 L 320,694 L 321,694 L 325,698 L 326,698 L 329,701 L 330,701 L 333,704 L 334,704 L 337,707 L 338,707 L 340,709 L 341,709 L 343,711 L 344,711 L 345,712 L 346,712 L 348,714 L 349,714 L 351,716 L 352,716 L 353,717 L 354,717 L 356,719 L 357,719 L 358,720 L 359,720 L 360,721 L 361,721 L 362,722 L 363,722 L 365,724 L 366,724 L 367,725 L 368,725 L 369,726 L 370,726 L 371,727 L 372,727 L 373,728 L 374,728 L 375,729 L 377,729 L 378,730 L 379,730 L 380,731 L 381,731 L 382,732 L 383,732 L 384,733 L 386,733 L 387,734 L 388,734 L 389,735 L 391,735 L 392,736 L 393,736 L 394,737 L 396,737 L 397,738 L 399,738 L 400,739 L 401,739 L 402,740 L 404,740 L 405,741 L 407,741 L 408,742 L 411,742 L 412,743 L 414,743 L 415,744 L 418,744 L 419,745 L 421,745 L 422,746 L 425,746 L 426,747 L 430,747 L 431,748 L 435,748 L 436,749 L 440,749 L 441,750 L 446,750 L 447,751 L 453,751 L 454,752 L 462,752 L 463,753 L 478,753 L 479,754 L 497,754 L 498,753 L 513,753 L 514,752 L 521,752 L 522,751 L 528,751 L 529,750 L 534,750 L 535,749 L 539,749 L 540,748 L 544,748 L 545,747 L 548,747 L 549,746 L 552,746 L 553,745 L 556,745 L 557,744 L 560,744 L 561,743 L 563,743 L 564,742 L 566,742 L 567,741 L 569,741 L 570,740 L 572,740 L 573,739 L 575,739 L 576,738 L 578,738 L 579,737 L 581,737 L 582,736 L 583,736 L 584,735 L 586,735 L 587,734 L 588,734 L 589,733 L 591,733 L 592,732 L 593,732 L 594,731 L 595,731 L 596,730 L 597,730 L 598,729 L 600,729 L 601,728 L 602,728 L 603,727 L 604,727 L 605,726 L 606,726 L 607,725 L 608,725 L 609,724 L 610,724 L 611,723 L 612,723 L 614,721 L 615,721 L 616,720 L 617,720 L 618,719 L 619,719 L 621,717 L 622,717 L 623,716 L 624,716 L 626,714 L 627,714 L 628,713 L 629,713 L 631,711 L 632,711 L 634,709 L 635,709 L 637,707 L 638,707 L 640,705 L 641,705 L 644,702 L 645,702 L 648,699 L 649,699 L 653,695 L 654,695 L 658,691 L 659,691 L 686,664 L 686,663 L 691,658 L 691,657 L 694,654 L 694,653 L 697,650 L 697,649 L 700,646 L 700,645 L 702,643 L 702,642 L 705,639 L 705,638 L 706,637 L 706,636 L 708,634 L 708,633 L 710,631 L 710,630 L 711,629 L 711,628 L 713,626 L 713,625 L 714,624 L 714,623 L 715,622 L 715,621 L 717,619 L 717,618 L 718,617 L 718,616 L 719,615 L 719,614 L 720,613 L 720,612 L 721,611 L 721,610 L 722,609 L 722,608 L 723,607 L 723,606 L 724,605 L 724,603 L 725,602 L 725,601 L 726,600 L 726,599 L 727,598 L 727,596 L 728,595 L 728,594 L 729,593 L 729,591 L 730,590 L 730,589 L 731,588 L 731,586 L 732,585 L 732,583 L 733,582 L 733,581 L 734,580 L 734,577 L 735,576 L 735,574 L 736,573 L 736,571 L 737,570 L 737,567 L 738,566 L 738,564 L 739,563 L 739,560 L 740,559 L 740,556 L 741,555 L 741,551 L 742,550 L 742,546 L 743,545 L 743,540 L 744,539 L 744,533 L 745,532 L 745,524 L 746,523 L 746,505 L 747,504 L 747,499 L 746,498 L 746,479 L 745,478 L 745,470 L 744,469 L 744,464 L 743,463 L 743,458 L 742,457 L 742,453 L 741,452 L 741,448 L 740,447 L 740,444 L 739,443 L 739,440 L 738,439 L 738,436 L 737,435 L 737,433 L 736,432 L 736,430 L 735,429 L 735,427 L 734,426 L 734,424 L 733,423 L 733,421 L 732,420 L 732,418 L 731,417 L 731,415 L 730,414 L 730,413 L 729,412 L 729,410 L 728,409 L 728,408 L 727,407 L 727,405 L 726,404 L 726,403 L 725,402 L 725,401 L 724,400 L 724,399 L 723,398 L 723,397 L 722,396 L 722,395 L 721,394 L 721,393 L 720,392 L 720,391 L 719,390 L 719,389 L 718,388 L 718,387 L 717,386 L 717,385 L 716,384 L 716,383 L 715,382 L 715,381 L 713,379 L 713,378 L 712,377 L 712,376 L 710,374 L 710,373 L 709,372 L 709,371 L 707,369 L 707,368 L 705,366 L 705,365 L 703,363 L 703,362 L 701,360 L 701,359 L 698,356 L 698,355 L 695,352 L 695,351 L 691,347 L 691,346 L 686,341 L 686,340 L 662,316 L 661,316 L 655,310 L 654,310 L 650,306 L 649,306 L 646,303 L 645,303 L 642,300 L 641,300 L 639,298 L 638,298 L 635,295 L 634,295 L 633,294 L 632,294 L 630,292 L 629,292 L 627,290 L 626,290 L 624,288 L 623,288 L 622,287 L 621,287 L 620,286 L 619,286 L 617,284 L 616,284 L 615,283 L 614,283 L 613,282 L 612,282 L 611,281 L 610,281 L 609,280 L 608,280 L 607,279 L 606,279 L 605,278 L 604,278 L 603,277 L 602,277 L 601,276 L 600,276 L 599,275 L 598,275 L 597,274 L 596,274 L 595,273 L 593,273 L 592,272 L 591,272 L 590,271 L 588,271 L 587,270 L 586,270 L 585,269 L 583,269 L 582,268 L 581,268 L 580,267 L 578,267 L 577,266 L 575,266 L 574,265 L 572,265 L 571,264 L 569,264 L 568,263 L 566,263 L 565,262 L 563,262 L 562,261 L 559,261 L 558,260 L 555,260 L 554,259 L 551,259 L 550,258 L 547,258 L 546,257 L 543,257 L 542,256 L 538,256 L 537,255 L 532,255 L 531,254 L 526,254 L 525,253 L 519,253 L 518,252 L 508,252 L 507,251 Z" fill="white" /><path d="M 458,169 L 457,170 L 446,170 L 445,171 L 438,171 L 437,172 L 431,172 L 430,173 L 425,173 L 424,174 L 420,174 L 419,175 L 414,175 L 413,176 L 409,176 L 408,177 L 405,177 L 404,178 L 400,178 L 399,179 L 396,179 L 395,180 L 392,180 L 391,181 L 388,181 L 387,182 L 385,182 L 384,183 L 381,183 L 380,184 L 378,184 L 377,185 L 374,185 L 373,186 L 371,186 L 370,187 L 368,187 L 367,188 L 365,188 L 364,189 L 362,189 L 361,190 L 360,190 L 359,191 L 357,191 L 356,192 L 354,192 L 353,193 L 352,193 L 351,194 L 349,194 L 348,195 L 347,195 L 346,196 L 344,196 L 343,197 L 342,197 L 341,198 L 340,198 L 339,199 L 337,199 L 336,200 L 335,200 L 334,201 L 333,201 L 332,202 L 331,202 L 330,203 L 329,203 L 328,204 L 327,204 L 326,205 L 325,205 L 324,206 L 323,206 L 322,207 L 321,207 L 320,208 L 319,208 L 318,209 L 317,209 L 316,210 L 315,210 L 313,212 L 312,212 L 311,213 L 310,213 L 309,214 L 308,214 L 306,216 L 305,216 L 304,217 L 303,217 L 301,219 L 300,219 L 298,221 L 297,221 L 296,222 L 295,222 L 292,225 L 291,225 L 289,227 L 288,227 L 286,229 L 285,229 L 283,231 L 282,231 L 279,234 L 278,234 L 275,237 L 274,237 L 270,241 L 269,241 L 266,244 L 265,244 L 260,249 L 259,249 L 252,256 L 251,256 L 229,278 L 229,279 L 223,285 L 223,286 L 218,291 L 218,292 L 215,295 L 215,296 L 211,300 L 211,301 L 209,303 L 209,304 L 206,307 L 206,308 L 204,310 L 204,311 L 202,313 L 202,314 L 200,316 L 200,317 L 198,319 L 198,320 L 196,322 L 196,323 L 194,325 L 194,326 L 193,327 L 193,328 L 191,330 L 191,331 L 190,332 L 190,333 L 188,335 L 188,336 L 187,337 L 187,338 L 186,339 L 186,340 L 184,342 L 184,343 L 183,344 L 183,345 L 182,346 L 182,347 L 181,348 L 181,349 L 180,350 L 180,351 L 179,352 L 179,353 L 178,354 L 178,355 L 177,356 L 177,357 L 176,358 L 176,359 L 175,360 L 175,361 L 174,362 L 174,363 L 173,364 L 173,365 L 172,366 L 172,367 L 171,368 L 171,369 L 170,370 L 170,371 L 169,372 L 169,373 L 168,374 L 168,376 L 167,377 L 167,378 L 166,379 L 166,380 L 165,381 L 165,383 L 164,384 L 164,385 L 163,386 L 163,388 L 162,389 L 162,391 L 161,392 L 161,396 L 162,397 L 162,398 L 163,399 L 163,400 L 164,401 L 165,401 L 166,402 L 168,402 L 169,403 L 172,403 L 173,402 L 175,402 L 180,397 L 180,395 L 181,394 L 181,393 L 182,392 L 182,390 L 183,389 L 183,388 L 184,387 L 184,385 L 185,384 L 185,383 L 186,382 L 186,381 L 187,380 L 187,378 L 188,377 L 188,376 L 189,375 L 189,374 L 190,373 L 190,372 L 191,371 L 191,370 L 192,369 L 192,367 L 194,365 L 194,364 L 195,363 L 195,362 L 196,361 L 196,360 L 197,359 L 197,358 L 198,357 L 198,356 L 199,355 L 199,354 L 200,353 L 200,352 L 202,350 L 202,349 L 203,348 L 203,347 L 204,346 L 204,345 L 206,343 L 206,342 L 207,341 L 207,340 L 209,338 L 209,337 L 210,336 L 210,335 L 212,333 L 212,332 L 214,330 L 214,329 L 216,327 L 216,326 L 218,324 L 218,323 L 220,321 L 220,320 L 223,317 L 223,316 L 225,314 L 225,313 L 229,309 L 229,308 L 232,305 L 232,304 L 238,298 L 238,297 L 247,288 L 247,287 L 258,276 L 259,276 L 271,264 L 272,264 L 277,259 L 278,259 L 282,255 L 283,255 L 286,252 L 287,252 L 290,249 L 291,249 L 294,246 L 295,246 L 297,244 L 298,244 L 300,242 L 301,242 L 303,240 L 304,240 L 306,238 L 307,238 L 309,236 L 310,236 L 311,235 L 312,235 L 314,233 L 315,233 L 316,232 L 317,232 L 318,231 L 319,231 L 321,229 L 322,229 L 323,228 L 324,228 L 325,227 L 326,227 L 327,226 L 328,226 L 329,225 L 330,225 L 331,224 L 332,224 L 334,222 L 336,222 L 338,220 L 340,220 L 341,219 L 342,219 L 343,218 L 344,218 L 345,217 L 346,217 L 347,216 L 348,216 L 349,215 L 350,215 L 351,214 L 352,214 L 353,213 L 355,213 L 356,212 L 357,212 L 358,211 L 360,211 L 361,210 L 362,210 L 363,209 L 365,209 L 366,208 L 367,208 L 368,207 L 370,207 L 371,206 L 373,206 L 374,205 L 376,205 L 377,204 L 379,204 L 380,203 L 382,203 L 383,202 L 385,202 L 386,201 L 388,201 L 389,200 L 392,200 L 393,199 L 396,199 L 397,198 L 400,198 L 401,197 L 404,197 L 405,196 L 408,196 L 409,195 L 413,195 L 414,194 L 418,194 L 419,193 L 423,193 L 424,192 L 429,192 L 430,191 L 436,191 L 437,190 L 444,190 L 445,189 L 453,189 L 454,188 L 468,188 L 469,187 L 503,187 L 504,188 L 518,188 L 519,189 L 528,189 L 529,190 L 536,190 L 537,191 L 542,191 L 543,192 L 548,192 L 549,193 L 554,193 L 555,194 L 559,194 L 560,195 L 563,195 L 564,196 L 568,196 L 569,197 L 572,197 L 573,198 L 576,198 L 577,199 L 579,199 L 580,200 L 583,200 L 584,201 L 586,201 L 587,202 L 590,202 L 591,203 L 593,203 L 594,204 L 596,204 L 597,205 L 599,205 L 600,206 L 602,206 L 603,207 L 604,207 L 605,208 L 607,208 L 608,209 L 610,209 L 611,210 L 612,210 L 613,211 L 615,211 L 616,212 L 617,212 L 618,213 L 619,213 L 620,214 L 622,214 L 623,215 L 624,215 L 625,216 L 626,216 L 627,217 L 628,217 L 629,218 L 631,218 L 632,219 L 633,219 L 634,220 L 635,220 L 636,221 L 637,221 L 638,222 L 639,222 L 640,223 L 641,223 L 642,224 L 643,224 L 644,225 L 645,225 L 646,226 L 647,226 L 648,227 L 649,227 L 651,229 L 652,229 L 653,230 L 654,230 L 655,231 L 656,231 L 657,232 L 658,232 L 660,234 L 661,234 L 662,235 L 663,235 L 664,236 L 665,236 L 667,238 L 668,238 L 670,240 L 671,240 L 672,241 L 673,241 L 675,243 L 676,243 L 678,245 L 679,245 L 682,248 L 683,248 L 685,250 L 686,250 L 689,253 L 690,253 L 693,256 L 694,256 L 698,260 L 699,260 L 703,264 L 704,264 L 710,270 L 711,270 L 738,297 L 738,298 L 745,305 L 745,306 L 749,310 L 749,311 L 752,314 L 752,315 L 755,318 L 755,319 L 758,322 L 758,323 L 761,326 L 761,327 L 763,329 L 763,330 L 765,332 L 765,333 L 767,335 L 767,336 L 769,338 L 769,339 L 771,341 L 771,342 L 772,343 L 772,344 L 774,346 L 774,347 L 775,348 L 775,349 L 777,351 L 777,352 L 778,353 L 778,354 L 779,355 L 779,356 L 780,357 L 780,358 L 781,359 L 781,360 L 782,361 L 782,362 L 783,363 L 783,364 L 784,365 L 784,366 L 785,367 L 785,368 L 786,369 L 786,370 L 787,371 L 787,372 L 788,373 L 788,374 L 789,375 L 789,376 L 790,377 L 790,378 L 791,379 L 791,381 L 792,382 L 792,383 L 793,384 L 793,385 L 794,386 L 794,387 L 795,388 L 795,390 L 796,391 L 796,392 L 797,393 L 797,395 L 798,396 L 798,398 L 799,399 L 799,400 L 800,401 L 800,403 L 801,404 L 801,406 L 802,407 L 802,409 L 803,410 L 803,412 L 804,413 L 804,415 L 805,416 L 805,418 L 806,419 L 806,422 L 807,423 L 807,425 L 808,426 L 808,428 L 812,432 L 813,432 L 814,433 L 821,433 L 822,432 L 823,432 L 825,430 L 825,429 L 826,428 L 826,427 L 827,426 L 827,422 L 826,421 L 826,419 L 825,418 L 825,416 L 824,415 L 824,413 L 823,412 L 823,410 L 822,409 L 822,407 L 821,406 L 821,404 L 820,403 L 820,401 L 819,400 L 819,398 L 818,397 L 818,396 L 817,395 L 817,393 L 816,392 L 816,390 L 815,389 L 815,388 L 814,387 L 814,385 L 813,384 L 813,383 L 812,382 L 812,380 L 811,379 L 811,378 L 810,377 L 810,376 L 809,375 L 809,373 L 808,372 L 808,371 L 807,370 L 807,369 L 806,368 L 806,367 L 805,366 L 805,365 L 804,364 L 804,363 L 803,362 L 803,361 L 802,360 L 802,359 L 801,358 L 801,357 L 800,356 L 800,355 L 799,354 L 799,353 L 798,352 L 798,351 L 797,350 L 797,349 L 796,348 L 796,347 L 795,346 L 795,345 L 794,344 L 794,343 L 792,341 L 792,340 L 791,339 L 791,338 L 790,337 L 790,336 L 788,334 L 788,333 L 787,332 L 787,331 L 785,329 L 785,328 L 783,326 L 783,325 L 782,324 L 782,323 L 780,321 L 780,320 L 778,318 L 778,317 L 775,314 L 775,313 L 773,311 L 773,310 L 770,307 L 770,306 L 767,303 L 767,302 L 763,298 L 763,297 L 758,292 L 758,291 L 753,286 L 753,285 L 726,258 L 725,258 L 719,252 L 718,252 L 713,247 L 712,247 L 709,244 L 708,244 L 704,240 L 703,240 L 701,238 L 700,238 L 697,235 L 696,235 L 694,233 L 693,233 L 690,230 L 689,230 L 687,228 L 686,228 L 685,227 L 684,227 L 682,225 L 681,225 L 679,223 L 678,223 L 676,221 L 675,221 L 674,220 L 673,220 L 671,218 L 670,218 L 669,217 L 668,217 L 666,215 L 665,215 L 664,214 L 663,214 L 662,213 L 661,213 L 660,212 L 659,212 L 658,211 L 657,211 L 656,210 L 655,210 L 654,209 L 653,209 L 651,207 L 649,207 L 648,206 L 647,206 L 646,205 L 645,205 L 644,204 L 643,204 L 642,203 L 641,203 L 640,202 L 639,202 L 638,201 L 637,201 L 636,200 L 635,200 L 634,199 L 632,199 L 631,198 L 630,198 L 629,197 L 627,197 L 626,196 L 625,196 L 624,195 L 623,195 L 622,194 L 620,194 L 619,193 L 617,193 L 616,192 L 615,192 L 614,191 L 612,191 L 611,190 L 609,190 L 608,189 L 606,189 L 605,188 L 603,188 L 602,187 L 600,187 L 599,186 L 597,186 L 596,185 L 594,185 L 593,184 L 591,184 L 590,183 L 587,183 L 586,182 L 584,182 L 583,181 L 580,181 L 579,180 L 576,180 L 575,179 L 572,179 L 571,178 L 568,178 L 567,177 L 563,177 L 562,176 L 558,176 L 557,175 L 552,175 L 551,174 L 547,174 L 546,173 L 540,173 L 539,172 L 533,172 L 532,171 L 524,171 L 523,170 L 513,170 L 512,169 Z" fill="white" /></svg>